<?xml version="1.0" standalone="no"?>
<!DOCTYPE svg PUBLIC "-//W3C//DTD SVG 20010904//EN"
 "http://www.w3.org/TR/2001/REC-SVG-20010904/DTD/svg10.dtd">
<svg version="1.0" xmlns="http://www.w3.org/2000/svg"
 width="200.000000pt" height="200.000000pt" viewBox="0 0 200.000000 200.000000"
 preserveAspectRatio="xMidYMid meet">
<metadata>
Created by potrace 1.11, written by Peter Selinger 2001-2013
</metadata>
<g transform="translate(0.000000,200.000000) scale(0.100000,-0.100000)"
fill="#000000" stroke="none">
<path d="M1105 1990 c-33 -14 -65 -49 -65 -73 0 -33 11 -43 50 -50 32 -6 37
-4 58 26 21 32 22 36 7 70 -16 39 -19 41 -50 27z"/>
<path d="M1065 1801 c-53 -13 -104 -42 -131 -74 -31 -37 -41 -60 -49 -118 -4
-24 -8 -46 -10 -48 -2 -1 0 -13 5 -26 11 -28 20 -86 22 -142 1 -47 -20 -88
-51 -96 -48 -12 -121 78 -123 154 l-1 33 -29 -34 c-15 -19 -28 -40 -28 -47 0
-7 -10 -22 -22 -33 -21 -19 -23 -30 -24 -143 -2 -154 -1 -148 -25 -110 -11 18
-26 30 -32 28 -7 -2 -29 -7 -51 -10 -21 -3 -42 -7 -46 -10 -4 -2 -13 -32 -20
-66 -13 -61 -13 -62 12 -83 13 -12 31 -37 38 -56 7 -19 19 -42 27 -51 18 -22
16 -37 -6 -49 -21 -11 -47 -5 -73 17 -14 13 -17 10 -23 -24 -8 -48 9 -158 35
-226 11 -29 23 -74 26 -102 24 -220 166 -396 373 -461 60 -19 193 -26 256 -12
28 5 84 26 125 45 92 44 190 139 238 230 18 34 32 64 31 65 0 2 4 22 11 46 6
24 13 75 16 114 2 39 7 74 10 79 11 19 5 131 -11 184 -16 55 -15 57 14 152 17
53 28 100 26 104 -11 17 -77 39 -118 39 -41 0 -44 2 -44 26 0 45 -18 49 -54
11 -19 -20 -44 -38 -56 -42 -21 -6 -23 -3 -23 37 0 40 3 46 34 60 27 13 38 29
60 84 l27 67 -30 31 c-26 27 -29 37 -26 75 2 36 -8 94 -21 109 -1 2 -21 -15
-43 -37 -26 -26 -50 -41 -65 -41 -14 0 -36 -4 -50 -10 -28 -10 -38 -1 -43 36
-2 14 8 32 32 52 19 17 35 33 35 36 0 2 -17 -2 -37 -9 -20 -7 -43 -10 -51 -8
-34 14 -43 116 -15 164 18 30 102 79 136 79 10 0 16 4 13 8 -7 11 -131 13
-171 3z m-330 -614 c33 -58 33 -104 0 -119 -14 -6 -27 -9 -30 -6 -9 9 -9 168
0 168 2 0 16 -20 30 -43z"/>
<path d="M1287 1686 c-30 -27 -37 -41 -37 -70 0 -20 2 -36 5 -36 11 0 58 47
71 72 15 30 19 68 6 68 -4 0 -25 -15 -45 -34z"/>
<path d="M747 1694 c-4 -4 -7 -27 -7 -51 0 -34 6 -50 27 -71 l27 -27 6 25 c15
58 -25 151 -53 124z"/>
<path d="M517 1406 c-3 -7 -4 -39 -3 -70 3 -59 20 -86 63 -100 18 -6 20 -2 20
41 0 54 -11 87 -41 121 -23 25 -32 28 -39 8z"/>
<path d="M1466 1318 c-38 -34 -58 -90 -36 -103 27 -17 99 90 82 120 -7 13 -14
10 -46 -17z"/>
</g>
</svg>
